<svg width="26" height="16" viewBox="0 0 26 16" fill="none" xmlns="http://www.w3.org/2000/svg">
<path fill-rule="evenodd" clip-rule="evenodd" d="M0.632812 8C0.632812 7.76429 0.725849 7.53822 0.891455 7.37155C1.05706 7.20487 1.28167 7.11124 1.51587 7.11124L22.3437 7.11124L16.7858 1.51913C16.6199 1.35225 16.5268 1.1259 16.5268 0.889887C16.5268 0.653874 16.6199 0.427528 16.7858 0.260641C16.9516 0.093755 17.1765 2.30528e-07 17.411 2.20278e-07C17.6455 2.10028e-07 17.8704 0.093755 18.0362 0.260641L25.1007 7.37075C25.1829 7.45331 25.2481 7.55139 25.2927 7.65937C25.3372 7.76734 25.3601 7.8831 25.3601 8C25.3601 8.1169 25.3372 8.23266 25.2927 8.34063C25.2481 8.44861 25.1829 8.54669 25.1007 8.62924L18.0362 15.7394C17.8704 15.9062 17.6455 16 17.411 16C17.1765 16 16.9516 15.9062 16.7858 15.7394C16.6199 15.5725 16.5268 15.3461 16.5268 15.1101C16.5268 14.8741 16.6199 14.6478 16.7858 14.4809L22.3437 8.88876L1.51587 8.88876C1.28167 8.88876 1.05706 8.79513 0.891455 8.62845C0.725849 8.46177 0.632812 8.23572 0.632812 8Z" fill="#D4D4D4"/>
</svg>
