<svg width="34" height="30" viewBox="0 0 34 30" fill="none" xmlns="http://www.w3.org/2000/svg">
<path d="M30.3281 6.66667H23.6615V3.33333L20.3281 0H13.6615L10.3281 3.33333V6.66667H3.66146C1.82812 6.66667 0.328125 8.16667 0.328125 10V18.3333C0.328125 19.5833 0.994792 20.6333 1.99479 21.2167V26.6667C1.99479 28.5167 3.47813 30 5.32812 30H28.6615C30.5115 30 31.9948 28.5167 31.9948 26.6667V21.2C32.9781 20.6167 33.6615 19.55 33.6615 18.3333V10C33.6615 8.16667 32.1615 6.66667 30.3281 6.66667ZM13.6615 3.33333H20.3281V6.66667H13.6615V3.33333ZM3.66146 10H30.3281V18.3333H21.9948V13.3333H11.9948V18.3333H3.66146V10ZM18.6615 20H15.3281V16.6667H18.6615V20ZM28.6615 26.6667H5.32812V21.6667H11.9948V23.3333H21.9948V21.6667H28.6615V26.6667Z" fill="#ECECEC"/>
</svg>
