<svg width="49" height="49" viewBox="0 0 49 49" fill="none" xmlns="http://www.w3.org/2000/svg">
<rect x="24.043" width="34" height="34" rx="6" transform="rotate(45 24.043 0)" fill="#B2EBF2"/>
<path fill-rule="evenodd" clip-rule="evenodd" d="M24.7233 19.7148C22.3659 19.7148 20.4375 21.6434 20.4375 24.0006C20.4375 26.3579 22.3659 28.2863 24.7233 28.2863C27.0807 28.2863 29.0089 26.3579 29.0089 24.0006C29.0089 21.6434 27.0807 19.7148 24.7233 19.7148ZM34.9515 22.8572C34.4369 18.1144 30.6082 14.2857 25.8655 13.7715V12H23.5798V13.7714C18.8371 14.2857 15.0084 18.1144 14.4939 22.8571H12.7227V25.1428H14.4938C15.0083 29.8856 18.837 33.7143 23.5798 34.2288V36H25.8654V34.2288C30.6082 33.7143 34.4369 29.8856 34.9514 25.1429H36.7227V22.8572H34.9515ZM24.7227 32C20.3225 32 16.7226 28.4001 16.7226 24C16.7226 19.5999 20.3225 16 24.7227 16C29.1227 16 32.7226 19.5999 32.7226 24C32.7226 28.4001 29.1227 32 24.7227 32Z" fill="#00BCD4"/>
</svg>
