<svg width="36" height="36" viewBox="0 0 36 36" fill="none" xmlns="http://www.w3.org/2000/svg">
<path fill-rule="evenodd" clip-rule="evenodd" d="M18.2367 35.4071C27.9355 35.4071 35.7977 27.5448 35.7977 17.8461C35.7977 8.14747 27.9355 0.285156 18.2367 0.285156C8.53808 0.285156 0.675781 8.14747 0.675781 17.8461C0.675781 27.5448 8.53808 35.4071 18.2367 35.4071ZM20.9473 13.8533C22.4442 12.3563 22.4442 9.92926 20.9473 8.43227C19.4503 6.9353 17.0233 6.9353 15.5263 8.43227C14.0294 9.92926 14.0294 12.3563 15.5263 13.8533L18.2367 16.5637L20.9473 13.8533ZM22.2296 20.5566C23.7266 22.0536 26.1536 22.0536 27.6506 20.5566C29.1475 19.0596 29.1475 16.6326 27.6506 15.1356C26.1536 13.6387 23.7266 13.6387 22.2296 15.1356L19.5192 17.8462L22.2296 20.5566ZM20.9473 27.26C22.4442 25.763 22.4442 23.336 20.9473 21.839L18.2367 19.1286L15.5263 21.839C14.0294 23.336 14.0294 25.763 15.5263 27.26C17.0233 28.757 19.4503 28.757 20.9473 27.26ZM8.82287 20.5566C7.32594 19.0596 7.32594 16.6326 8.82287 15.1356C10.3199 13.6387 12.7469 13.6387 14.2439 15.1356L16.9543 17.8462L14.2439 20.5566C12.7469 22.0536 10.3199 22.0536 8.82287 20.5566Z" fill="#51564E"/>
</svg>
