<svg width="40" height="32" viewBox="0 0 40 32" fill="none" xmlns="http://www.w3.org/2000/svg">
<path d="M38.5714 0.500002H28.3571C26.1652 0.500002 24.0223 1.12212 22.1786 2.29576L20 3.67677L17.8214 2.29576C15.9795 1.12234 13.8343 0.498843 11.6429 0.500002H1.42857C0.638393 0.500002 0 1.13094 0 1.9119V26.9731C0 27.7541 0.638393 28.385 1.42857 28.385H11.6429C13.8348 28.385 15.9777 29.0071 17.8214 30.1808L19.8036 31.4426C19.8616 31.4779 19.9286 31.5 19.9955 31.5C20.0625 31.5 20.1295 31.4824 20.1875 31.4426L22.1696 30.1808C24.0179 29.0071 26.1652 28.385 28.3571 28.385H38.5714C39.3616 28.385 40 27.7541 40 26.9731V1.9119C40 1.13094 39.3616 0.500002 38.5714 0.500002ZM11.6429 25.2082H3.21429V3.67677H11.6429C13.2232 3.67677 14.7589 4.1224 16.0848 4.96513L18.2634 6.34614L18.5714 6.54469V26.929C16.4464 25.7995 14.0714 25.2082 11.6429 25.2082ZM36.7857 25.2082H28.3571C25.9286 25.2082 23.5536 25.7995 21.4286 26.929V6.54469L21.7366 6.34614L23.9152 4.96513C25.2411 4.1224 26.7768 3.67677 28.3571 3.67677H36.7857V25.2082ZM14.8616 9.32437H6.56696C6.39286 9.32437 6.25 9.47438 6.25 9.65528V11.6408C6.25 11.8217 6.39286 11.9717 6.56696 11.9717H14.8571C15.0312 11.9717 15.1741 11.8217 15.1741 11.6408V9.65528C15.1786 9.47438 15.0357 9.32437 14.8616 9.32437ZM24.8214 9.65528V11.6408C24.8214 11.8217 24.9643 11.9717 25.1384 11.9717H33.4286C33.6027 11.9717 33.7455 11.8217 33.7455 11.6408V9.65528C33.7455 9.47438 33.6027 9.32437 33.4286 9.32437H25.1384C24.9643 9.32437 24.8214 9.47438 24.8214 9.65528ZM14.8616 15.5014H6.56696C6.39286 15.5014 6.25 15.6514 6.25 15.8323V17.8178C6.25 17.9987 6.39286 18.1487 6.56696 18.1487H14.8571C15.0312 18.1487 15.1741 17.9987 15.1741 17.8178V15.8323C15.1786 15.6514 15.0357 15.5014 14.8616 15.5014ZM33.433 15.5014H25.1384C24.9643 15.5014 24.8214 15.6514 24.8214 15.8323V17.8178C24.8214 17.9987 24.9643 18.1487 25.1384 18.1487H33.4286C33.6027 18.1487 33.7455 17.9987 33.7455 17.8178V15.8323C33.75 15.6514 33.6071 15.5014 33.433 15.5014Z" fill="#ECECEC"/>
</svg>
