<svg width="52" height="34" viewBox="0 0 52 34" fill="none" xmlns="http://www.w3.org/2000/svg">
<g clip-path="url(#clip0_4759_25784)">
<path fill-rule="evenodd" clip-rule="evenodd" d="M27.8825 6.01497C28.4479 5.06609 28.0108 4.29688 26.9062 4.29688H19.9062C18.8017 4.29688 17.4479 5.0661 16.8825 6.01498L1.22946 32.2835C0.664041 33.2324 1.10111 34.0016 2.20568 34.0016H17.2057C18.3102 34.0016 19.664 33.2324 20.2295 32.2835L25.991 22.6147C26.5564 21.6658 26.1193 20.8966 25.0148 20.8966H21.0147C19.9102 20.8966 19.4731 20.1274 20.0385 19.1785L27.8825 6.01497Z" fill="url(#paint0_linear_4759_25784)"/>
<rect width="17" height="21" rx="1" transform="matrix(1 0 -0.511893 0.859049 34.4648 0)" fill="url(#paint1_linear_4759_25784)"/>
<rect width="13" height="13" rx="1" transform="matrix(1 0 -0.511893 0.859049 30.1797 20.6172)" fill="#F5921E"/>
</g>
<defs>
<linearGradient id="paint0_linear_4759_25784" x1="19.2057" y1="34.0016" x2="4.34787" y2="23.5248" gradientUnits="userSpaceOnUse">
<stop stop-color="#00796D"/>
<stop offset="1" stop-color="#38C682"/>
</linearGradient>
<linearGradient id="paint1_linear_4759_25784" x1="17" y1="21" x2="-2.53037" y2="18.2994" gradientUnits="userSpaceOnUse">
<stop stop-color="#00796D"/>
<stop offset="1" stop-color="#38C682"/>
</linearGradient>
<clipPath id="clip0_4759_25784">
<rect width="52" height="34" fill="white"/>
</clipPath>
</defs>
</svg>
