<svg width="18" height="23" viewBox="0 0 18 23" fill="none" xmlns="http://www.w3.org/2000/svg">
<path d="M8.64478 0.9375C6.36426 0.94019 4.17792 1.84731 2.56536 3.45988C0.95279 5.07245 0.0456683 7.25878 0.0429779 9.5393C0.0402465 11.4029 0.648998 13.216 1.77585 14.7004C1.77585 14.7004 2.01044 15.0093 2.04876 15.0538L8.64478 22.833L15.2439 15.0499C15.2783 15.0085 15.5137 14.7004 15.5137 14.7004L15.5145 14.698C16.6408 13.2143 17.2492 11.4021 17.2466 9.5393C17.2439 7.25878 16.3368 5.07245 14.7242 3.45988C13.1116 1.84731 10.9253 0.94019 8.64478 0.9375ZM8.64478 12.6672C8.02613 12.6672 7.42138 12.4838 6.90699 12.1401C6.39261 11.7964 5.99169 11.3079 5.75495 10.7363C5.5182 10.1647 5.45626 9.53583 5.57695 8.92907C5.69764 8.32231 5.99555 7.76497 6.433 7.32752C6.87045 6.89007 7.42779 6.59216 8.03455 6.47147C8.6413 6.35078 9.27023 6.41272 9.84178 6.64947C10.4133 6.88622 10.9018 7.28713 11.2456 7.80152C11.5893 8.3159 11.7727 8.92065 11.7727 9.5393C11.7717 10.3686 11.4418 11.1636 10.8554 11.7499C10.269 12.3363 9.47404 12.6662 8.64478 12.6672Z" fill="white"/>
</svg>
