<svg width="906" height="937" viewBox="0 0 906 937" fill="none" xmlns="http://www.w3.org/2000/svg">
<g opacity="0.3">
<path fill-rule="evenodd" clip-rule="evenodd" d="M578.896 797.863C534.846 845.316 461.094 849.266 412.227 806.791L105.863 540.502C50.2959 492.203 50.9237 405.717 107.186 358.23L368.571 137.615C416.93 96.7981 488.675 100.55 532.513 146.189L785.242 409.298C829.303 455.169 829.919 527.452 786.646 574.068L578.896 797.863Z" fill="#006064"/>
<path fill-rule="evenodd" clip-rule="evenodd" d="M579.926 767.564C536.041 817.15 460.284 821.817 410.644 777.992L100.918 504.545C47.1562 457.081 46.7569 373.367 100.063 325.392L372.239 80.4357C421.485 36.115 497.331 40.09 541.674 89.3154L792.043 367.252C832.895 412.602 833.197 481.391 792.745 527.098L579.926 767.564Z" fill="#0D47A1"/>
</g>
</svg>
