<svg width="54" height="54" viewBox="0 0 54 54" fill="none" xmlns="http://www.w3.org/2000/svg">
<circle cx="27" cy="27" r="27" fill="#007AB9"/>
<path d="M16.3919 19.7838C18.2652 19.7838 19.7838 18.2652 19.7838 16.3919C19.7838 14.5186 18.2652 13 16.3919 13C14.5186 13 13 14.5186 13 16.3919C13 18.2652 14.5186 19.7838 16.3919 19.7838Z" fill="white"/>
<path d="M22.9903 22.3557V41.174H28.8331V31.8679C28.8331 29.4124 29.2951 27.0343 32.3398 27.0343C35.3426 27.0343 35.3798 29.8418 35.3798 32.023V41.1756H41.2257V30.8556C41.2257 25.7864 40.1344 21.8906 34.2094 21.8906C31.3647 21.8906 29.4579 23.4517 28.6781 24.9291H28.5991V22.3557H22.9903ZM13.4688 22.3557H19.3209V41.174H13.4688V22.3557Z" fill="white"/>
</svg>
