<svg width="26" height="26" viewBox="0 0 26 26" fill="none" xmlns="http://www.w3.org/2000/svg">
<path d="M20.9886 11.5312H23.0739C23.0739 6.18242 19.0357 2.14844 13.6797 2.14844V4.23372C17.9149 4.23372 20.9886 7.30222 20.9886 11.5312Z" fill="white"/>
<path d="M13.6884 8.40281C15.8811 8.40281 16.8164 9.33806 16.8164 11.5307H18.9016C18.9016 8.16822 17.051 6.31753 13.6884 6.31753V8.40281ZM17.2564 14.0779C17.056 13.8958 16.7927 13.7987 16.5221 13.8071C16.2515 13.8154 15.9948 13.9286 15.806 14.1227L13.311 16.6887C12.7104 16.574 11.5031 16.1976 10.2602 14.9579C9.0174 13.714 8.641 12.5035 8.52944 11.9071L11.0933 9.41105C11.2877 9.22246 11.401 8.96565 11.4094 8.69497C11.4178 8.42428 11.3205 8.16096 11.1381 7.96073L7.28557 3.72448C7.10315 3.52362 6.84962 3.40178 6.57882 3.38485C6.30802 3.36791 6.04128 3.45721 5.83525 3.63377L3.57272 5.57413C3.39246 5.75504 3.28487 5.99582 3.27035 6.2508C3.25471 6.51146 2.95652 12.686 7.74433 17.4759C11.9212 21.6517 17.1531 21.9572 18.5941 21.9572C18.8047 21.9572 18.934 21.9509 18.9684 21.9488C19.2233 21.9345 19.464 21.8265 19.644 21.6454L21.5833 19.3818C21.76 19.1759 21.8495 18.9093 21.8327 18.6385C21.816 18.3677 21.6944 18.1141 21.4937 17.9315L17.2564 14.0779Z" fill="white"/>
</svg>
