<svg width="16" height="12" viewBox="0 0 16 12" fill="none" xmlns="http://www.w3.org/2000/svg">
<path d="M13.2751 1.4899C12.261 1.08285 11.1909 0.792337 10.0915 0.625594C10.0815 0.624127 10.0713 0.625394 10.0622 0.629221C10.0531 0.633048 10.0456 0.639247 10.0407 0.646966C9.90285 0.860692 9.75036 1.14025 9.64382 1.3591C8.45875 1.20181 7.25332 1.20181 6.06825 1.3591C5.9494 1.1153 5.81495 0.877545 5.66553 0.646966C5.66052 0.639332 5.65298 0.633204 5.6439 0.629389C5.63483 0.625574 5.62465 0.624251 5.6147 0.625594C4.51505 0.791445 3.44473 1.08211 2.43109 1.4899C2.42242 1.4928 2.41516 1.49824 2.41057 1.50529C0.3833 4.15464 -0.172879 6.73901 0.0998342 9.2909C0.100812 9.30287 0.109609 9.31484 0.120361 9.32253C1.30087 10.0873 2.6213 10.6713 4.02534 11.0494C4.03525 11.0522 4.04591 11.0521 4.05575 11.0492C4.06559 11.0462 4.07412 11.0406 4.08008 11.0332C4.38114 10.6741 4.64896 10.2954 4.87965 9.89703C4.88445 9.88883 4.8861 9.87948 4.88434 9.87039C4.88258 9.8613 4.8775 9.85295 4.86987 9.84659C4.86482 9.84242 4.85883 9.83921 4.85228 9.83719C4.43115 9.69563 4.02328 9.52556 3.6324 9.32852C3.62148 9.32311 3.61336 9.31423 3.60972 9.30373C3.60608 9.29322 3.6072 9.2819 3.61285 9.27209C3.61618 9.26573 3.6212 9.26016 3.62751 9.25585C3.70962 9.20199 3.79173 9.14557 3.86992 9.08914C3.87683 9.08429 3.88512 9.08116 3.8939 9.08011C3.90268 9.07906 3.91163 9.08011 3.91977 9.08316C6.47976 10.1056 9.25088 10.1056 11.7796 9.08316C11.788 9.07996 11.7973 9.07883 11.8064 9.07988C11.8156 9.08094 11.8242 9.08414 11.8314 9.08914C11.9096 9.14557 11.9917 9.20199 12.0738 9.25585C12.0805 9.2601 12.0858 9.26573 12.0894 9.27223C12.0929 9.27874 12.0946 9.2859 12.0942 9.2931C12.0938 9.3003 12.0914 9.30731 12.0871 9.31349C12.0829 9.31967 12.077 9.32483 12.0699 9.32852C11.6799 9.52736 11.2715 9.69723 10.849 9.83633C10.8423 9.83846 10.8362 9.84187 10.8311 9.8463C10.826 9.85073 10.8222 9.85608 10.8197 9.86198C10.8175 9.86769 10.8165 9.87374 10.817 9.87977C10.8176 9.88579 10.8195 9.89167 10.8226 9.89703C11.0572 10.2946 11.326 10.6741 11.6212 11.0332C11.6272 11.0406 11.6357 11.0462 11.6456 11.0492C11.6554 11.0521 11.6661 11.0522 11.676 11.0494C13.0824 10.6725 14.4049 10.0884 15.5868 9.32253C15.5927 9.31895 15.5977 9.31425 15.6012 9.30877C15.6048 9.30329 15.6069 9.29718 15.6073 9.2909C15.9338 6.34063 15.0609 3.77763 13.2947 1.50615C13.2929 1.50239 13.2902 1.49901 13.2869 1.49621C13.2835 1.49341 13.2795 1.49126 13.2751 1.4899ZM5.26184 7.73669C4.49061 7.73669 3.85624 7.11774 3.85624 6.35858C3.85624 5.59857 4.47889 4.97962 5.26184 4.97962C6.05065 4.97962 6.67916 5.6037 6.66743 6.35858C6.66743 7.11774 6.04479 7.73669 5.26184 7.73669ZM10.458 7.73669C9.68781 7.73669 9.05245 7.11774 9.05245 6.35858C9.05245 5.59857 9.6751 4.97962 10.458 4.97962C11.2469 4.97962 11.8764 5.6037 11.8636 6.35858C11.8636 7.11774 11.2469 7.73669 10.458 7.73669Z" fill="black"/>
</svg>
