<svg width="17" height="17" viewBox="0 0 17 17" fill="none" xmlns="http://www.w3.org/2000/svg">
<path fill-rule="evenodd" clip-rule="evenodd" d="M5.32639 0.543013C6.16026 0.504624 6.42614 0.496094 8.55028 0.496094C10.6744 0.496094 10.9403 0.505335 11.7735 0.543013C12.6066 0.58069 13.1754 0.713627 13.673 0.906279C14.1941 1.1032 14.6668 1.41101 15.0578 1.80911C15.4559 2.19939 15.763 2.67142 15.9592 3.19322C16.1526 3.69084 16.2848 4.25956 16.3232 5.0913C16.3616 5.9266 16.3701 6.19247 16.3701 8.31591C16.3701 10.4401 16.3609 10.7059 16.3232 11.5398C16.2855 12.3716 16.1526 12.9403 15.9592 13.4379C15.763 13.9598 15.4554 14.4326 15.0578 14.8234C14.6668 15.2215 14.1941 15.5286 13.673 15.7248C13.1754 15.9182 12.6066 16.0504 11.7749 16.0888C10.9403 16.1272 10.6744 16.1357 8.55028 16.1357C6.42614 16.1357 6.16026 16.1265 5.32639 16.0888C4.49464 16.0511 3.92593 15.9182 3.42831 15.7248C2.90645 15.5286 2.43364 15.221 2.04278 14.8234C1.64495 14.4329 1.33708 13.9603 1.14065 13.4386C0.948002 12.941 0.815776 12.3723 0.777388 11.5405C0.738999 10.7052 0.730469 10.4393 0.730469 8.31591C0.730469 6.19176 0.73971 5.92589 0.777388 5.09272C0.815065 4.25956 0.948002 3.69084 1.14065 3.19322C1.33737 2.67148 1.64547 2.1989 2.04349 1.8084C2.4338 1.41066 2.90614 1.1028 3.42759 0.906279C3.92522 0.713627 4.49393 0.581401 5.32568 0.543013H5.32639ZM11.7102 1.95058C10.8856 1.9129 10.6382 1.90508 8.55028 1.90508C6.46239 1.90508 6.215 1.9129 5.39037 1.95058C4.62758 1.98541 4.21384 2.11266 3.93802 2.22001C3.57333 2.36219 3.31243 2.53067 3.03874 2.80436C2.77929 3.05676 2.57963 3.36403 2.45438 3.70364C2.34704 3.97947 2.21979 4.39321 2.18495 5.15599C2.14728 5.98063 2.13946 6.22802 2.13946 8.31591C2.13946 10.4038 2.14728 10.6512 2.18495 11.4758C2.21979 12.2386 2.34704 12.6524 2.45438 12.9282C2.5795 13.2673 2.77926 13.5751 3.03874 13.8275C3.2911 14.0869 3.59892 14.2867 3.93802 14.4118C4.21384 14.5192 4.62758 14.6464 5.39037 14.6812C6.215 14.7189 6.46168 14.7267 8.55028 14.7267C10.6389 14.7267 10.8856 14.7189 11.7102 14.6812C12.473 14.6464 12.8867 14.5192 13.1626 14.4118C13.5272 14.2696 13.7881 14.1012 14.0618 13.8275C14.3213 13.5751 14.5211 13.2673 14.6462 12.9282C14.7535 12.6524 14.8808 12.2386 14.9156 11.4758C14.9533 10.6512 14.9611 10.4038 14.9611 8.31591C14.9611 6.22802 14.9533 5.98063 14.9156 5.15599C14.8808 4.39321 14.7535 3.97947 14.6462 3.70364C14.504 3.33895 14.3355 3.07805 14.0618 2.80436C13.8094 2.54494 13.5022 2.34527 13.1626 2.22001C12.8867 2.11266 12.473 1.98541 11.7102 1.95058ZM7.55148 10.7265C8.10929 10.9587 8.73041 10.9901 9.30876 10.8152C9.8871 10.6403 10.3868 10.2701 10.7225 9.76772C11.0582 9.26536 11.2091 8.66202 11.1493 8.06077C11.0896 7.45953 10.823 6.89766 10.3951 6.47114C10.1222 6.1985 9.79237 5.98974 9.42918 5.85988C9.066 5.73003 8.67855 5.68231 8.29472 5.72017C7.91088 5.75803 7.54022 5.88052 7.2094 6.07882C6.87859 6.27713 6.59586 6.54632 6.38157 6.86701C6.16727 7.18769 6.02675 7.55191 5.97011 7.93342C5.91347 8.31494 5.94213 8.70427 6.05401 9.07338C6.1659 9.44249 6.35823 9.7822 6.61717 10.0681C6.8761 10.3539 7.1952 10.5788 7.55148 10.7265ZM5.70814 5.47376C6.08137 5.10053 6.52447 4.80446 7.01213 4.60247C7.49978 4.40047 8.02245 4.29651 8.55028 4.29651C9.07812 4.29651 9.60079 4.40047 10.0884 4.60246C10.5761 4.80446 11.0192 5.10053 11.3924 5.47376C11.7657 5.847 12.0617 6.29009 12.2637 6.77775C12.4657 7.26541 12.5697 7.78807 12.5697 8.31591C12.5697 8.84375 12.4657 9.36641 12.2637 9.85407C12.0617 10.3417 11.7657 10.7848 11.3924 11.1581C10.6386 11.9118 9.6163 12.3353 8.55028 12.3353C7.48427 12.3353 6.46192 11.9118 5.70814 11.1581C4.95435 10.4043 4.53088 9.38192 4.53088 8.31591C4.53088 7.2499 4.95435 6.22755 5.70814 5.47376ZM13.4611 4.8951C13.5536 4.80785 13.6277 4.70293 13.6789 4.58655C13.7301 4.47017 13.7574 4.3447 13.7593 4.21757C13.7611 4.09043 13.7375 3.96422 13.6897 3.84639C13.6419 3.72857 13.5709 3.62154 13.481 3.53163C13.3911 3.44172 13.2841 3.37077 13.1662 3.32297C13.0484 3.27517 12.9222 3.2515 12.7951 3.25335C12.6679 3.2552 12.5425 3.28255 12.4261 3.33376C12.3097 3.38497 12.2048 3.45902 12.1175 3.55151C11.9479 3.73139 11.855 3.97031 11.8586 4.21757C11.8622 4.46482 11.962 4.70094 12.1368 4.87579C12.3117 5.05064 12.5478 5.15047 12.7951 5.15407C13.0423 5.15768 13.2813 5.06478 13.4611 4.8951Z" fill="#011C2A"/>
</svg>
