<svg width="17" height="14" viewBox="0 0 17 14" fill="none" xmlns="http://www.w3.org/2000/svg">
<path d="M16.0693 2.06827C15.4942 2.31258 14.8683 2.48841 14.2236 2.55689C14.8929 2.16532 15.3942 1.5467 15.6333 0.817096C15.0052 1.18502 14.3171 1.44302 13.5996 1.57964C13.2997 1.26394 12.937 1.01243 12.5341 0.840801C12.1312 0.669167 11.6967 0.581084 11.2577 0.582039C9.48154 0.582039 8.05309 1.99978 8.05309 3.73958C8.05309 3.98389 8.08317 4.2282 8.13203 4.46326C5.47249 4.32629 3.10051 3.07512 1.52358 1.1595C1.23624 1.64279 1.08567 2.19306 1.08753 2.75308C1.08753 3.84878 1.65327 4.81492 2.51597 5.38313C2.00757 5.36341 1.51107 5.2258 1.06685 4.98149V5.02036C1.06685 6.55471 2.16826 7.82624 3.63618 8.11867C3.36056 8.18917 3.07703 8.22524 2.79227 8.22602C2.58364 8.22602 2.38629 8.20566 2.18706 8.1779C2.59304 9.42907 3.77526 10.3378 5.18304 10.3674C4.08163 11.217 2.70205 11.7167 1.20406 11.7167C0.935283 11.7167 0.687184 11.7075 0.429688 11.6778C1.85062 12.5755 3.53656 13.0937 5.3522 13.0937C11.2464 13.0937 14.4717 8.28525 14.4717 4.1116C14.4717 3.97463 14.4717 3.83767 14.4623 3.70071C15.0863 3.25095 15.6333 2.69385 16.0693 2.06827Z" fill="black"/>
</svg>
