<svg width="18" height="12" viewBox="0 0 18 12" fill="none" xmlns="http://www.w3.org/2000/svg">
<path d="M17.0303 5.46835L11.7802 0.218347C11.6388 0.0817281 11.4493 0.00613204 11.2527 0.00784085C11.0561 0.00954967 10.8679 0.0884266 10.7289 0.227483C10.5898 0.366539 10.511 0.554648 10.5092 0.751296C10.5075 0.947943 10.5831 1.13739 10.7198 1.27885L14.6895 5.2486H1.5C1.30109 5.2486 1.11032 5.32761 0.96967 5.46827C0.829018 5.60892 0.75 5.79968 0.75 5.9986C0.75 6.19751 0.829018 6.38827 0.96967 6.52893C1.11032 6.66958 1.30109 6.7486 1.5 6.7486H14.6895L10.7198 10.7183C10.6481 10.7875 10.591 10.8703 10.5517 10.9618C10.5124 11.0533 10.4917 11.1517 10.4908 11.2513C10.4899 11.3509 10.5089 11.4496 10.5466 11.5418C10.5843 11.634 10.64 11.7177 10.7105 11.7881C10.7809 11.8586 10.8646 11.9143 10.9568 11.952C11.049 11.9897 11.1477 12.0086 11.2473 12.0078C11.3469 12.0069 11.4453 11.9862 11.5368 11.9469C11.6283 11.9076 11.7111 11.8505 11.7802 11.7788L17.0303 6.52885C17.1709 6.3882 17.2498 6.19747 17.2498 5.9986C17.2498 5.79972 17.1709 5.60899 17.0303 5.46835Z" fill="white"/>
</svg>
