<svg width="34" height="34" viewBox="0 0 34 34" fill="none" xmlns="http://www.w3.org/2000/svg">
<g clip-path="url(#clip0_600_22870)">
<path d="M33.1674 15.0816H23.1088L31.8196 10.0546L30.0921 7.0626L21.3802 12.0896L26.4084 3.3831L23.4158 1.65609L18.3865 10.3604V0.308594H14.9294V10.3615L9.90009 1.65609L6.90626 3.3831L11.9345 12.0874L3.22478 7.0626L1.49627 10.0546L10.2071 15.0816H0.148438V18.5367H10.206L1.49627 23.5637L3.22368 26.5557L11.9356 21.5287L6.90626 30.2352L9.89899 31.9622L14.9294 23.2568V33.3086H18.3865V23.0412L23.5081 31.9072L26.315 30.288L21.1921 21.4199L30.0899 26.5546L31.8185 23.5626L23.1088 18.5356H33.1663V15.0816H33.1674ZM16.6579 21.5056C16.0408 21.5057 15.4297 21.3843 14.8595 21.1482C14.2894 20.9122 13.7713 20.5662 13.3349 20.1299C12.8985 19.6938 12.5523 19.1758 12.316 18.6059C12.0798 18.0359 11.9582 17.425 11.9581 16.8081C11.958 16.1911 12.0795 15.5801 12.3156 15.0101C12.5518 14.4401 12.8978 13.9221 13.3342 13.4858C13.7704 13.0495 14.2883 12.7034 14.8586 12.4672C15.4287 12.2311 16.0397 12.1095 16.6568 12.1094C17.9031 12.1093 19.0984 12.6041 19.9798 13.4851C20.8612 14.3661 21.3565 15.561 21.3566 16.807C21.3567 18.0529 20.8618 19.248 19.9806 20.1292C19.0994 21.0104 17.9042 21.5054 16.6579 21.5056Z" fill="url(#paint0_linear_600_22870)"/>
</g>
<defs>
<linearGradient id="paint0_linear_600_22870" x1="16.6579" y1="0.308594" x2="16.6579" y2="33.3086" gradientUnits="userSpaceOnUse">
<stop stop-color="#3171DE"/>
<stop offset="1" stop-color="#704AF2"/>
</linearGradient>
<clipPath id="clip0_600_22870">
<rect width="33" height="33" fill="white" transform="translate(0.148438 0.308594)"/>
</clipPath>
</defs>
</svg>
