<svg width="30" height="30" viewBox="0 0 30 30" fill="none" xmlns="http://www.w3.org/2000/svg">
<path d="M15 30C6.71652 30 0 23.2835 0 15C0 6.71652 6.71652 0 15 0C23.2835 0 30 6.71652 30 15C30 23.2835 23.2835 30 15 30ZM15 2.54464C8.12277 2.54464 2.54464 8.12277 2.54464 15C2.54464 21.8772 8.12277 27.4554 15 27.4554C21.8772 27.4554 27.4554 21.8772 27.4554 15C27.4554 8.12277 21.8772 2.54464 15 2.54464Z" fill="#ECECEC"/>
<path d="M20.8504 10.7628L16.0759 14.2148V22.5017C16.0759 22.649 15.9554 22.7695 15.808 22.7695H14.1975C14.0502 22.7695 13.9297 22.649 13.9297 22.5017V13.2807C13.9297 13.1936 13.9699 13.1133 14.0402 13.0631L19.5781 9.02511C19.6987 8.93806 19.8661 8.96484 19.9531 9.08203L20.9107 10.3878C20.9978 10.5117 20.971 10.6791 20.8504 10.7628Z" fill="#ECECEC"/>
</svg>
