<svg width="44" height="44" viewBox="0 0 44 44" fill="none" xmlns="http://www.w3.org/2000/svg">
<rect width="44" height="44" rx="9" fill="#1C2231"/>
<path d="M20.2427 14.8705C21.0007 13.4807 22.9964 13.4807 23.7544 14.8705L24.9708 17.1009C25.2584 17.6284 25.7679 17.9986 26.3585 18.1091L28.8556 18.5768C30.4117 18.8682 31.0284 20.7662 29.9407 21.9166L28.1954 23.7626C27.7827 24.1992 27.588 24.7982 27.6653 25.394L27.9923 27.9134C28.196 29.4833 26.5814 30.6564 25.1512 29.9775L22.8562 28.888C22.3134 28.6304 21.6836 28.6304 21.1409 28.888L18.8459 29.9775C17.4157 30.6564 15.8011 29.4833 16.0048 27.9134L16.3317 25.394C16.409 24.7982 16.2144 24.1992 15.8017 23.7626L14.0563 21.9166C12.9687 20.7662 13.5854 18.8682 15.1415 18.5768L17.6386 18.1091C18.2291 17.9986 18.7387 17.6284 19.0263 17.1009L20.2427 14.8705Z" stroke="white" stroke-width="1.5" stroke-linejoin="round"/>
</svg>
