<svg width="639" height="687" viewBox="0 0 639 687" fill="none" xmlns="http://www.w3.org/2000/svg">
<path d="M355.328 638.664C327.008 664.163 283.38 661.876 257.881 633.557L50.5815 403.328C25.0825 375.008 27.369 331.38 55.6885 305.881L285.917 98.5818C314.237 73.0829 357.865 75.3693 383.364 103.689L590.663 333.918C616.162 362.237 613.876 405.866 585.556 431.365L355.328 638.664Z" stroke="#0D47A1" stroke-width="2"/>
<path d="M372.8 596.492C344.481 621.991 300.852 619.704 275.353 591.385L112.754 410.801C87.2555 382.481 89.542 338.853 117.861 313.354L298.446 150.755C326.765 125.256 370.394 127.542 395.893 155.862L558.491 336.446C583.99 364.766 581.704 408.394 553.384 433.893L372.8 596.492Z" stroke="#0D47A1" stroke-width="2"/>
<path fill-rule="evenodd" clip-rule="evenodd" d="M376.419 556.95C355.898 575.427 324.283 573.77 305.805 553.249L167.295 399.418C148.818 378.897 150.474 347.282 170.996 328.804L324.827 190.294C345.348 171.817 376.963 173.474 395.441 193.995L533.951 347.826C552.428 368.347 550.771 399.962 530.25 418.44L376.419 556.95Z" fill="#0D47A1"/>
<path fill-rule="evenodd" clip-rule="evenodd" d="M380.906 507.103C367.772 518.929 347.538 517.869 335.713 504.735L241.365 399.952C229.54 386.818 230.6 366.584 243.734 354.759L354.091 255.393C367.225 243.567 387.458 244.628 399.284 257.761L493.631 362.545C505.457 375.678 504.396 395.912 491.263 407.738L380.906 507.103Z" fill="#2196F3"/>
<path d="M310.512 365L301.296 331.4H305.616L312.864 360.2L321.072 331.4H325.584L333.6 360.296L340.944 331.4H345.264L335.856 365H331.248L323.232 337.208L315.024 365H310.512ZM349.813 365V330.44H353.845V344.888C354.645 343.448 355.765 342.312 357.205 341.48C358.677 340.648 360.277 340.232 362.005 340.232C363.861 340.232 365.477 340.616 366.853 341.384C368.229 342.12 369.285 343.256 370.021 344.792C370.757 346.328 371.125 348.264 371.125 350.6V365H367.141V351.032C367.141 348.6 366.629 346.776 365.605 345.56C364.581 344.312 363.093 343.688 361.141 343.688C359.765 343.688 358.517 344.024 357.397 344.696C356.309 345.368 355.445 346.328 354.805 347.576C354.165 348.824 353.845 350.36 353.845 352.184V365H349.813ZM379.359 375.56L385.263 362.312H383.871L374.367 340.808H378.735L386.607 359.288L394.863 340.808H399.039L383.583 375.56H379.359ZM303.6 429V395.4H315.408C317.776 395.4 319.728 395.784 321.264 396.552C322.832 397.288 324 398.312 324.768 399.624C325.536 400.904 325.92 402.344 325.92 403.944C325.92 405.672 325.536 407.112 324.768 408.264C324.032 409.416 323.056 410.296 321.84 410.904C320.656 411.512 319.392 411.88 318.048 412.008L318.72 411.528C320.16 411.56 321.488 411.944 322.704 412.68C323.92 413.416 324.88 414.408 325.584 415.656C326.32 416.904 326.688 418.296 326.688 419.832C326.688 421.528 326.272 423.08 325.44 424.488C324.608 425.864 323.376 426.968 321.744 427.8C320.144 428.6 318.16 429 315.792 429H303.6ZM307.632 425.64H315.36C317.632 425.64 319.392 425.112 320.64 424.056C321.92 422.968 322.56 421.464 322.56 419.544C322.56 417.656 321.904 416.152 320.592 415.032C319.312 413.88 317.536 413.304 315.264 413.304H307.632V425.64ZM307.632 410.088H315.12C317.296 410.088 318.944 409.576 320.064 408.552C321.216 407.528 321.792 406.136 321.792 404.376C321.792 402.68 321.216 401.32 320.064 400.296C318.944 399.272 317.248 398.76 314.976 398.76H307.632V410.088ZM343.226 429.576C340.762 429.576 338.618 429.128 336.794 428.232C334.97 427.336 333.562 426.088 332.57 424.488C331.578 422.888 331.082 421.032 331.082 418.92H335.306C335.306 420.232 335.61 421.448 336.218 422.568C336.826 423.656 337.706 424.536 338.858 425.208C340.042 425.848 341.498 426.168 343.226 426.168C344.73 426.168 346.01 425.928 347.066 425.448C348.154 424.936 348.97 424.248 349.514 423.384C350.09 422.52 350.378 421.544 350.378 420.456C350.378 419.144 350.09 418.088 349.514 417.288C348.97 416.456 348.218 415.784 347.258 415.272C346.298 414.76 345.178 414.312 343.898 413.928C342.65 413.512 341.338 413.08 339.962 412.632C337.306 411.736 335.354 410.616 334.106 409.272C332.858 407.928 332.234 406.184 332.234 404.04C332.234 402.216 332.65 400.616 333.482 399.24C334.346 397.864 335.562 396.792 337.13 396.024C338.73 395.224 340.618 394.824 342.794 394.824C344.938 394.824 346.794 395.224 348.362 396.024C349.962 396.824 351.21 397.928 352.106 399.336C353.002 400.712 353.45 402.312 353.45 404.136H349.226C349.226 403.208 348.986 402.296 348.506 401.4C348.026 400.504 347.29 399.768 346.298 399.192C345.338 398.584 344.122 398.28 342.65 398.28C341.434 398.248 340.346 398.456 339.386 398.904C338.458 399.32 337.722 399.928 337.178 400.728C336.666 401.528 336.41 402.504 336.41 403.656C336.41 404.744 336.634 405.624 337.082 406.296C337.562 406.968 338.234 407.544 339.098 408.024C339.994 408.472 341.034 408.888 342.218 409.272C343.402 409.656 344.714 410.088 346.154 410.568C347.786 411.112 349.226 411.784 350.474 412.584C351.754 413.352 352.746 414.344 353.45 415.56C354.186 416.776 354.554 418.328 354.554 420.216C354.554 421.816 354.122 423.336 353.258 424.776C352.426 426.184 351.178 427.336 349.514 428.232C347.85 429.128 345.754 429.576 343.226 429.576ZM360.366 429V395.4H364.398L382.302 422.328V395.4H386.334V429H382.302L364.398 402.072V429H360.366ZM397.537 419.352L397.345 411.864H398.833C400.177 411.864 401.457 411.784 402.673 411.624C403.921 411.432 405.009 411.096 405.937 410.616C406.897 410.104 407.649 409.368 408.193 408.408C408.769 407.448 409.057 406.2 409.057 404.664C409.057 403.32 408.769 402.168 408.193 401.208C407.617 400.248 406.817 399.512 405.793 399C404.769 398.488 403.585 398.232 402.241 398.232C400.897 398.232 399.713 398.488 398.689 399C397.665 399.512 396.865 400.232 396.289 401.16C395.745 402.056 395.473 403.144 395.473 404.424H391.633C391.633 402.504 392.081 400.824 392.977 399.384C393.873 397.944 395.121 396.824 396.721 396.024C398.321 395.224 400.161 394.824 402.241 394.824C404.321 394.824 406.161 395.224 407.761 396.024C409.393 396.824 410.657 397.96 411.553 399.432C412.481 400.904 412.945 402.648 412.945 404.664C412.945 407.032 412.433 408.952 411.409 410.424C410.417 411.896 409.041 412.968 407.281 413.64C405.521 414.312 403.489 414.648 401.185 414.648L401.041 419.352H397.537ZM399.265 429.24C398.465 429.24 397.793 428.984 397.249 428.472C396.737 427.928 396.481 427.272 396.481 426.504C396.481 425.736 396.737 425.096 397.249 424.584C397.793 424.04 398.465 423.768 399.265 423.768C400.065 423.768 400.721 424.04 401.233 424.584C401.745 425.096 402.001 425.736 402.001 426.504C402.001 427.272 401.745 427.928 401.233 428.472C400.721 428.984 400.065 429.24 399.265 429.24Z" fill="white"/>
<g filter="url(#filter0_d_600_22734)">
<ellipse cx="176.223" cy="444.973" rx="31" ry="30.75" fill="#00BCD4"/>
<path d="M205.223 444.973C205.223 460.836 192.254 473.723 176.223 473.723C160.191 473.723 147.223 460.836 147.223 444.973C147.223 429.11 160.191 416.223 176.223 416.223C192.254 416.223 205.223 429.11 205.223 444.973Z" stroke="white" stroke-width="4"/>
</g>
<ellipse cx="176.224" cy="444.936" rx="4.85714" ry="4.88474" fill="white"/>
<path fill-rule="evenodd" clip-rule="evenodd" d="M167.722 444.936C167.722 442.119 169.13 439.653 171.236 438.293L169.48 436.422C169.005 436.774 168.556 437.172 168.138 437.617C166.303 439.572 165.293 442.171 165.293 444.936C165.293 447.7 166.303 450.299 168.138 452.254C168.556 452.699 169.005 453.097 169.48 453.449L171.237 451.578C169.13 450.218 167.722 447.752 167.722 444.936Z" fill="white"/>
<path fill-rule="evenodd" clip-rule="evenodd" d="M184.722 444.935C184.722 447.752 183.314 450.218 181.207 451.578L182.963 453.449C183.438 453.097 183.888 452.698 184.305 452.254C186.14 450.299 187.151 447.7 187.151 444.935C187.151 442.171 186.14 439.572 184.305 437.617C183.888 437.172 183.438 436.774 182.963 436.422L181.207 438.293C183.314 439.653 184.722 442.119 184.722 444.935Z" fill="white"/>
<path fill-rule="evenodd" clip-rule="evenodd" d="M161.651 444.934C161.651 440.693 163.568 436.928 166.528 434.568L164.796 432.723C164.34 433.104 163.905 433.516 163.491 433.957C162.153 435.382 161.103 437.042 160.369 438.891C159.608 440.807 159.223 442.84 159.223 444.934C159.223 447.029 159.608 449.062 160.369 450.978C161.103 452.827 162.153 454.487 163.491 455.912C163.905 456.353 164.34 456.765 164.796 457.146L166.528 455.301C163.568 452.941 161.651 449.176 161.651 444.934Z" fill="white"/>
<path fill-rule="evenodd" clip-rule="evenodd" d="M190.795 444.934C190.795 449.176 188.879 452.941 185.918 455.301L187.651 457.121C188.106 456.739 188.542 456.353 188.956 455.912C190.293 454.487 191.343 452.827 192.078 450.978C192.838 449.062 193.224 447.029 193.224 444.934C193.224 442.84 192.838 440.807 192.078 438.891C191.343 437.042 190.293 435.382 188.956 433.957C188.542 433.516 188.106 433.104 187.651 432.723L185.918 434.568C188.879 436.928 190.795 440.693 190.795 444.934Z" fill="white"/>
<g filter="url(#filter1_d_600_22734)">
<ellipse cx="81.7227" cy="518.473" rx="23" ry="22.75" fill="#A36AF2"/>
<path d="M102.723 518.473C102.723 529.912 93.3413 539.223 81.7227 539.223C70.104 539.223 60.7227 529.912 60.7227 518.473C60.7227 507.033 70.104 497.723 81.7227 497.723C93.3413 497.723 102.723 507.033 102.723 518.473Z" stroke="white" stroke-width="4"/>
</g>
<path fill-rule="evenodd" clip-rule="evenodd" d="M79.9364 513.366C79.9364 514.353 80.7344 515.151 81.7221 515.151C82.7098 515.151 83.5078 514.353 83.5078 513.366V508.008C83.5078 507.021 82.7098 506.223 81.7221 506.223C80.7344 506.223 79.9364 507.021 79.9364 508.008V513.366Z" fill="white"/>
<path fill-rule="evenodd" clip-rule="evenodd" d="M81.7221 522.293C82.7098 522.293 83.5078 523.091 83.5078 524.079V529.436C83.5078 530.424 82.7098 531.222 81.7221 531.222C80.7344 531.222 79.9364 530.424 79.9364 529.436V524.079C79.9364 523.091 80.7344 522.293 81.7221 522.293Z" fill="white"/>
<path fill-rule="evenodd" clip-rule="evenodd" d="M71.0095 516.938H76.3666C77.3544 516.938 78.1523 517.735 78.1523 518.723C78.1523 519.711 77.3544 520.509 76.3666 520.509H71.0095C70.0218 520.509 69.2238 519.711 69.2238 518.723C69.2238 517.735 70.0218 516.938 71.0095 516.938Z" fill="white"/>
<path fill-rule="evenodd" clip-rule="evenodd" d="M87.0798 516.938H92.4369C93.4247 516.938 94.2227 517.735 94.2227 518.723C94.2227 519.711 93.4247 520.509 92.4369 520.509H87.0798C86.0921 520.509 85.2941 519.711 85.2941 518.723C85.2941 517.735 86.0921 516.938 87.0798 516.938Z" fill="white"/>
<path fill-rule="evenodd" clip-rule="evenodd" d="M76.6716 516.196C77.3691 516.893 78.502 516.893 79.1995 516.196C79.897 515.498 79.897 514.365 79.1995 513.668L75.4104 509.879C74.7129 509.181 73.5801 509.181 72.8825 509.879C72.185 510.576 72.185 511.709 72.8825 512.407L76.6716 516.196Z" fill="white"/>
<path fill-rule="evenodd" clip-rule="evenodd" d="M84.2497 521.25C84.9473 520.552 86.0801 520.552 86.7776 521.25L90.5667 525.039C91.2642 525.736 91.2642 526.869 90.5667 527.567C89.8691 528.264 88.7363 528.264 88.0388 527.567L84.2497 523.778C83.5522 523.074 83.5522 521.947 84.2497 521.25Z" fill="white"/>
<path fill-rule="evenodd" clip-rule="evenodd" d="M72.8825 525.035L76.6716 521.246C77.3691 520.548 78.502 520.548 79.1995 521.246C79.897 521.943 79.897 523.076 79.1995 523.774L75.4104 527.563C74.7129 528.26 73.5801 528.26 72.8825 527.563C72.185 526.865 72.185 525.732 72.8825 525.035Z" fill="white"/>
<path fill-rule="evenodd" clip-rule="evenodd" d="M84.2497 513.672L88.0388 509.883C88.7363 509.185 89.8691 509.185 90.5667 509.883C91.2642 510.58 91.2642 511.713 90.5667 512.41L86.7776 516.199C86.0801 516.897 84.9473 516.897 84.2497 516.199C83.5522 515.502 83.5522 514.369 84.2497 513.672Z" fill="white"/>
<g filter="url(#filter2_d_600_22734)">
<ellipse cx="550.223" cy="306.973" rx="23" ry="22.75" fill="#2196F3"/>
<path d="M571.223 306.973C571.223 318.412 561.841 327.723 550.223 327.723C538.604 327.723 529.223 318.412 529.223 306.973C529.223 295.533 538.604 286.223 550.223 286.223C561.841 286.223 571.223 295.533 571.223 306.973Z" stroke="white" stroke-width="4"/>
</g>
<path fill-rule="evenodd" clip-rule="evenodd" d="M550.223 314.516L542.498 319.223L544.541 310.344L537.723 304.373L546.712 303.594L550.223 295.223L553.734 303.594L562.723 304.373L555.904 310.344L557.948 319.223L550.223 314.516Z" fill="white"/>
<g filter="url(#filter3_d_600_22734)">
<ellipse cx="480.223" cy="224.473" rx="16" ry="15.75" fill="#651FFF"/>
<path d="M494.223 224.473C494.223 232.037 487.984 238.223 480.223 238.223C472.461 238.223 466.223 232.037 466.223 224.473C466.223 216.908 472.461 210.723 480.223 210.723C487.984 210.723 494.223 216.908 494.223 224.473Z" stroke="white" stroke-width="4"/>
</g>
<path fill-rule="evenodd" clip-rule="evenodd" d="M473.723 222.666C473.723 222.238 473.939 221.841 474.311 221.627L480.223 218.723L486.134 221.627C486.475 221.841 486.723 222.238 486.723 222.666V228.5C486.723 229.173 486.166 229.723 485.485 229.723H474.961C474.28 229.723 473.723 229.173 473.723 228.5V222.666ZM480.223 225.598L485.195 222.39L480.223 219.945L475.25 222.39L480.223 225.598Z" fill="white"/>
<g filter="url(#filter4_d_600_22734)">
<ellipse cx="464.223" cy="527.473" rx="52" ry="51.75" fill="#651FFF"/>
<path d="M514.223 527.473C514.223 554.94 491.846 577.223 464.223 577.223C436.599 577.223 414.223 554.94 414.223 527.473C414.223 500.006 436.599 477.723 464.223 477.723C491.846 477.723 514.223 500.006 514.223 527.473Z" stroke="white" stroke-width="4"/>
</g>
<path fill-rule="evenodd" clip-rule="evenodd" d="M472.004 524.848C471.881 524.796 471.757 524.745 471.644 524.673C470.925 524.262 470.391 523.554 470.217 522.702L468.316 510.616L468.296 510.021C468.296 509.292 468.717 508.974 469.323 508.686C469.395 508.655 469.467 508.624 469.539 508.594C470.278 508.245 470.782 507.793 470.782 506.92C470.782 504.856 470.114 504.723 468.912 504.723H459.533C458.331 504.723 457.664 504.846 457.664 506.92C457.664 507.793 458.167 508.245 458.907 508.594C458.979 508.624 459.05 508.645 459.122 508.686C459.728 508.984 460.15 509.302 460.15 510.021L460.129 510.616L458.229 522.702C458.054 523.554 457.52 524.262 456.801 524.673C456.688 524.745 456.565 524.796 456.441 524.848C454.418 525.895 452.723 528.01 452.723 530.464C452.723 532.097 453.082 532.651 454.284 532.651H462.574L463.807 550.723H464.628L465.861 532.651H474.161C475.363 532.651 475.723 532.169 475.723 530.464C475.723 528.01 474.028 525.895 472.004 524.848Z" fill="white"/>
<g filter="url(#filter5_d_600_22734)">
<circle cx="340.973" cy="101.473" r="45.75" fill="#00BCD4"/>
<circle cx="340.973" cy="101.473" r="43.75" stroke="white" stroke-width="4"/>
</g>
<path fill-rule="evenodd" clip-rule="evenodd" d="M363.427 91.841C363.427 87.7982 360.485 84.5461 356.85 84.5461C351.926 84.3125 346.905 84.2227 341.776 84.2227C341.51 84.2227 341.243 84.2227 340.976 84.2227C340.71 84.2227 340.443 84.2227 340.176 84.2227C335.057 84.2227 330.026 84.3125 325.102 84.5461C321.476 84.5461 318.534 87.8162 318.534 91.859C318.312 95.0572 318.214 98.2555 318.223 101.454C318.214 104.652 318.312 107.85 318.525 111.057C318.525 115.1 321.467 118.379 325.094 118.379C330.266 118.622 335.572 118.73 340.967 118.721C346.371 118.739 351.66 118.631 356.841 118.379C360.477 118.379 363.418 115.1 363.418 111.057C363.632 107.85 363.729 104.652 363.721 101.445C363.738 98.2465 363.641 95.0482 363.427 91.841ZM336.621 110.267V92.6133L349.509 101.435L336.621 110.267Z" fill="white"/>
<g filter="url(#filter6_d_600_22734)">
<ellipse cx="133.723" cy="188.473" rx="52" ry="51.75" fill="#2196F3"/>
<path d="M183.723 188.473C183.723 215.94 161.346 238.223 133.723 238.223C106.099 238.223 83.7227 215.94 83.7227 188.473C83.7227 161.006 106.099 138.723 133.723 138.723C161.346 138.723 183.723 161.006 183.723 188.473Z" stroke="white" stroke-width="4"/>
</g>
<path fill-rule="evenodd" clip-rule="evenodd" d="M158.877 170.054H149.141L143.314 164.189C143.314 164.189 143.285 164.16 143.271 164.16L143.242 164.131C142.377 163.269 141.208 162.723 139.881 162.723H127.766C126.352 162.723 125.098 163.326 124.218 164.29V164.304L118.521 170.054H108.569C105.886 170.054 103.723 172.153 103.723 174.826V203.878C103.723 206.552 105.886 208.723 108.569 208.723H158.877C161.545 208.723 163.723 206.552 163.723 203.878V174.826C163.723 172.153 161.545 170.054 158.877 170.054ZM133.721 201.462C126.38 201.462 120.395 195.482 120.395 188.151C120.395 180.805 126.38 174.84 133.721 174.84C141.077 174.84 147.048 180.805 147.048 188.151C147.048 195.482 141.077 201.462 133.721 201.462ZM157.968 177.745C156.858 177.745 155.949 176.84 155.949 175.718C155.949 174.597 156.858 173.691 157.968 173.691C159.079 173.691 159.988 174.597 159.988 175.718C159.988 176.84 159.079 177.745 157.968 177.745Z" fill="white"/>
<path fill-rule="evenodd" clip-rule="evenodd" d="M133.724 178.09C128.156 178.09 123.656 182.589 123.656 188.152C123.656 193.701 128.156 198.215 133.724 198.215C139.276 198.215 143.791 193.715 143.791 188.152C143.791 182.589 139.276 178.09 133.724 178.09Z" fill="white"/>
<defs>
<filter id="filter0_d_600_22734" x="87.2227" y="359.223" width="178" height="177.5" filterUnits="userSpaceOnUse" color-interpolation-filters="sRGB">
<feFlood flood-opacity="0" result="BackgroundImageFix"/>
<feColorMatrix in="SourceAlpha" type="matrix" values="0 0 0 0 0 0 0 0 0 0 0 0 0 0 0 0 0 0 127 0" result="hardAlpha"/>
<feMorphology radius="9" operator="dilate" in="SourceAlpha" result="effect1_dropShadow_600_22734"/>
<feOffset dy="3"/>
<feGaussianBlur stdDeviation="24.5"/>
<feColorMatrix type="matrix" values="0 0 0 0 0 0 0 0 0 0 0 0 0 0 0 0 0 0 0.06 0"/>
<feBlend mode="normal" in2="BackgroundImageFix" result="effect1_dropShadow_600_22734"/>
<feBlend mode="normal" in="SourceGraphic" in2="effect1_dropShadow_600_22734" result="shape"/>
</filter>
<filter id="filter1_d_600_22734" x="0.722656" y="440.723" width="162" height="161.5" filterUnits="userSpaceOnUse" color-interpolation-filters="sRGB">
<feFlood flood-opacity="0" result="BackgroundImageFix"/>
<feColorMatrix in="SourceAlpha" type="matrix" values="0 0 0 0 0 0 0 0 0 0 0 0 0 0 0 0 0 0 127 0" result="hardAlpha"/>
<feMorphology radius="9" operator="dilate" in="SourceAlpha" result="effect1_dropShadow_600_22734"/>
<feOffset dy="3"/>
<feGaussianBlur stdDeviation="24.5"/>
<feColorMatrix type="matrix" values="0 0 0 0 0 0 0 0 0 0 0 0 0 0 0 0 0 0 0.06 0"/>
<feBlend mode="normal" in2="BackgroundImageFix" result="effect1_dropShadow_600_22734"/>
<feBlend mode="normal" in="SourceGraphic" in2="effect1_dropShadow_600_22734" result="shape"/>
</filter>
<filter id="filter2_d_600_22734" x="469.223" y="229.223" width="162" height="161.5" filterUnits="userSpaceOnUse" color-interpolation-filters="sRGB">
<feFlood flood-opacity="0" result="BackgroundImageFix"/>
<feColorMatrix in="SourceAlpha" type="matrix" values="0 0 0 0 0 0 0 0 0 0 0 0 0 0 0 0 0 0 127 0" result="hardAlpha"/>
<feMorphology radius="9" operator="dilate" in="SourceAlpha" result="effect1_dropShadow_600_22734"/>
<feOffset dy="3"/>
<feGaussianBlur stdDeviation="24.5"/>
<feColorMatrix type="matrix" values="0 0 0 0 0 0 0 0 0 0 0 0 0 0 0 0 0 0 0.06 0"/>
<feBlend mode="normal" in2="BackgroundImageFix" result="effect1_dropShadow_600_22734"/>
<feBlend mode="normal" in="SourceGraphic" in2="effect1_dropShadow_600_22734" result="shape"/>
</filter>
<filter id="filter3_d_600_22734" x="406.223" y="153.723" width="148" height="147.5" filterUnits="userSpaceOnUse" color-interpolation-filters="sRGB">
<feFlood flood-opacity="0" result="BackgroundImageFix"/>
<feColorMatrix in="SourceAlpha" type="matrix" values="0 0 0 0 0 0 0 0 0 0 0 0 0 0 0 0 0 0 127 0" result="hardAlpha"/>
<feMorphology radius="9" operator="dilate" in="SourceAlpha" result="effect1_dropShadow_600_22734"/>
<feOffset dy="3"/>
<feGaussianBlur stdDeviation="24.5"/>
<feColorMatrix type="matrix" values="0 0 0 0 0 0 0 0 0 0 0 0 0 0 0 0 0 0 0.06 0"/>
<feBlend mode="normal" in2="BackgroundImageFix" result="effect1_dropShadow_600_22734"/>
<feBlend mode="normal" in="SourceGraphic" in2="effect1_dropShadow_600_22734" result="shape"/>
</filter>
<filter id="filter4_d_600_22734" x="354.223" y="420.723" width="220" height="219.5" filterUnits="userSpaceOnUse" color-interpolation-filters="sRGB">
<feFlood flood-opacity="0" result="BackgroundImageFix"/>
<feColorMatrix in="SourceAlpha" type="matrix" values="0 0 0 0 0 0 0 0 0 0 0 0 0 0 0 0 0 0 127 0" result="hardAlpha"/>
<feMorphology radius="9" operator="dilate" in="SourceAlpha" result="effect1_dropShadow_600_22734"/>
<feOffset dy="3"/>
<feGaussianBlur stdDeviation="24.5"/>
<feColorMatrix type="matrix" values="0 0 0 0 0 0 0 0 0 0 0 0 0 0 0 0 0 0 0.06 0"/>
<feBlend mode="normal" in2="BackgroundImageFix" result="effect1_dropShadow_600_22734"/>
<feBlend mode="normal" in="SourceGraphic" in2="effect1_dropShadow_600_22734" result="shape"/>
</filter>
<filter id="filter5_d_600_22734" x="237.223" y="0.722656" width="207.5" height="207.5" filterUnits="userSpaceOnUse" color-interpolation-filters="sRGB">
<feFlood flood-opacity="0" result="BackgroundImageFix"/>
<feColorMatrix in="SourceAlpha" type="matrix" values="0 0 0 0 0 0 0 0 0 0 0 0 0 0 0 0 0 0 127 0" result="hardAlpha"/>
<feMorphology radius="9" operator="dilate" in="SourceAlpha" result="effect1_dropShadow_600_22734"/>
<feOffset dy="3"/>
<feGaussianBlur stdDeviation="24.5"/>
<feColorMatrix type="matrix" values="0 0 0 0 0 0 0 0 0 0 0 0 0 0 0 0 0 0 0.06 0"/>
<feBlend mode="normal" in2="BackgroundImageFix" result="effect1_dropShadow_600_22734"/>
<feBlend mode="normal" in="SourceGraphic" in2="effect1_dropShadow_600_22734" result="shape"/>
</filter>
<filter id="filter6_d_600_22734" x="23.7227" y="81.7227" width="220" height="219.5" filterUnits="userSpaceOnUse" color-interpolation-filters="sRGB">
<feFlood flood-opacity="0" result="BackgroundImageFix"/>
<feColorMatrix in="SourceAlpha" type="matrix" values="0 0 0 0 0 0 0 0 0 0 0 0 0 0 0 0 0 0 127 0" result="hardAlpha"/>
<feMorphology radius="9" operator="dilate" in="SourceAlpha" result="effect1_dropShadow_600_22734"/>
<feOffset dy="3"/>
<feGaussianBlur stdDeviation="24.5"/>
<feColorMatrix type="matrix" values="0 0 0 0 0 0 0 0 0 0 0 0 0 0 0 0 0 0 0.06 0"/>
<feBlend mode="normal" in2="BackgroundImageFix" result="effect1_dropShadow_600_22734"/>
<feBlend mode="normal" in="SourceGraphic" in2="effect1_dropShadow_600_22734" result="shape"/>
</filter>
</defs>
</svg>
