<svg width="44" height="44" viewBox="0 0 44 44" fill="none" xmlns="http://www.w3.org/2000/svg">
<rect width="44" height="44" rx="9" fill="#1C2231"/>
<path d="M19.0089 21.75C19.4231 21.75 19.7589 21.4142 19.7589 21C19.7589 20.5858 19.4231 20.25 19.0089 20.25V21.75ZM18.9989 20.25C18.5846 20.25 18.2489 20.5858 18.2489 21C18.2489 21.4142 18.5846 21.75 18.9989 21.75V20.25ZM25.0088 21.75C25.4231 21.75 25.7588 21.4142 25.7588 21C25.7588 20.5858 25.4231 20.25 25.0088 20.25V21.75ZM24.9988 20.25C24.5846 20.25 24.2488 20.5858 24.2488 21C24.2488 21.4142 24.5846 21.75 24.9988 21.75V20.25ZM16.777 18.75H27.2208V17.25H16.777V18.75ZM29.4641 20.8274L30.0026 27.8274L31.4982 27.7124L30.9597 20.7124L29.4641 20.8274ZM27.7592 30.25H16.2385V31.75H27.7592V30.25ZM13.9951 27.8274L14.5336 20.8274L13.038 20.7124L12.4995 27.7124L13.9951 27.8274ZM16.2385 30.25C14.9278 30.25 13.8946 29.1342 13.9951 27.8274L12.4995 27.7124C12.332 29.8904 14.0541 31.75 16.2385 31.75V30.25ZM30.0026 27.8274C30.1031 29.1342 29.0699 30.25 27.7592 30.25V31.75C29.9436 31.75 31.6657 29.8904 31.4982 27.7124L30.0026 27.8274ZM27.2208 18.75C28.3965 18.75 29.374 19.6552 29.4641 20.8274L30.9597 20.7124C30.8094 18.7587 29.1803 17.25 27.2208 17.25V18.75ZM16.777 17.25C14.8175 17.25 13.1883 18.7587 13.038 20.7124L14.5336 20.8274C14.6238 19.6552 15.6013 18.75 16.777 18.75V17.25ZM24.2488 16V18H25.7488V16H24.2488ZM19.7489 18V16H18.2489V18H19.7489ZM21.9988 13.75C23.2415 13.75 24.2488 14.7574 24.2488 16H25.7488C25.7488 13.9289 24.0699 12.25 21.9988 12.25V13.75ZM21.9988 12.25C19.9278 12.25 18.2489 13.9289 18.2489 16H19.7489C19.7489 14.7574 20.7562 13.75 21.9988 13.75V12.25ZM19.0089 20.25H18.9989V21.75H19.0089V20.25ZM25.0088 20.25H24.9988V21.75H25.0088V20.25Z" fill="white"/>
</svg>
