<svg width="1471" height="724" viewBox="0 0 1471 724" fill="none" xmlns="http://www.w3.org/2000/svg">
<path d="M1360 40C1360 17.9086 1342.09 0 1320 0H119.996C97.9047 0 79.9961 17.9086 79.9961 40V144C79.9961 166.091 62.0875 184 39.9961 184H-0.00390625V689H1440V184H1400C1377.9 184 1360 166.091 1360 144V40Z" fill="#0C111F"/>
<path opacity="0.2" d="M1168.73 640.277C1243.7 686.011 1341.54 662.316 1387.28 587.352C1433.01 512.388 1409.31 414.543 1334.35 368.809C1259.39 323.075 1161.54 346.77 1115.81 421.734C1070.07 496.697 1093.77 594.542 1168.73 640.277ZM1295.55 432.409C1335.39 456.714 1347.98 508.712 1323.68 548.551C1299.37 588.389 1247.37 600.982 1207.53 576.677C1167.7 552.372 1155.1 500.374 1179.41 460.535C1203.71 420.696 1255.71 408.104 1295.55 432.409Z" fill="url(#paint0_linear_1310_31930)"/>
<path opacity="0.2" d="M84.0883 370.473C130.528 398.805 191.143 384.126 219.475 337.687C247.807 291.247 233.128 230.632 186.688 202.3C140.248 173.968 79.6338 188.647 51.3016 235.087C22.9694 281.526 37.6485 342.141 84.0883 370.473ZM162.651 241.7C187.331 256.757 195.132 288.97 180.075 313.649C165.018 338.329 132.805 346.13 108.125 331.074C83.4455 316.017 75.6445 283.804 90.7013 259.124C105.758 234.444 137.971 226.643 162.651 241.7Z" fill="url(#paint1_linear_1310_31930)"/>
<defs>
<linearGradient id="paint0_linear_1310_31930" x1="1469.81" y1="645.934" x2="1033" y2="394.33" gradientUnits="userSpaceOnUse">
<stop stop-color="white"/>
<stop offset="1" stop-color="white" stop-opacity="0"/>
</linearGradient>
<linearGradient id="paint1_linear_1310_31930" x1="51.3016" y1="235.087" x2="219.475" y2="337.687" gradientUnits="userSpaceOnUse">
<stop stop-color="white"/>
<stop offset="1" stop-color="white" stop-opacity="0"/>
</linearGradient>
</defs>
</svg>
